HIERARCHY
ROOT Hips
{
	OFFSET 0.000000 103.266502 0.000000
	CHANNELS 6 Xposition Yposition Zposition Xrotation Yrotation Zrotation 
	JOINT Spine
	{
		OFFSET -0.002400 12.777504 0.315300
		CHANNELS 3 Xrotation Yrotation Zrotation
		JOINT Spine1
		{
			OFFSET -0.002067 5.816869 0.032633
			CHANNELS 3 Xrotation Yrotation Zrotation
			JOINT Spine1_split
			{
				OFFSET -0.002067 5.816869 0.032633
				CHANNELS 3 Xrotation Yrotation Zrotation
				JOINT Spine2
				{
					OFFSET -0.002067 5.816869 0.032633
					CHANNELS 3 Xrotation Yrotation Zrotation
					JOINT Neck
					{
						OFFSET -0.003700 21.199493 -0.826900
						CHANNELS 3 Xrotation Yrotation Zrotation
						JOINT Head
						{
							OFFSET 0.000000 20.442200 4.834800
							CHANNELS 3 Xrotation Yrotation Zrotation
							JOINT HeadTop_End
							{
								OFFSET 0.000000 34.668396 4.968400
								CHANNELS 3 Xrotation Yrotation Zrotation
								End Site
								{
									OFFSET 0.000000 0.000000 0.000000
								}
							}
						}
					}
					JOINT LeftShoulder
					{
						OFFSET 3.288150 8.794197 -1.372250
						CHANNELS 3 Xrotation Yrotation Zrotation
						JOINT LeftShoulder_split
						{
							OFFSET 3.288150 8.794197 -1.372250
							CHANNELS 3 Xrotation Yrotation Zrotation
							JOINT LeftArm
							{
								OFFSET 11.953299 -2.279007 -0.146200
								CHANNELS 3 Xrotation Yrotation Zrotation
								JOINT LeftForeArm
								{
									OFFSET 18.448900 0.000000 0.000000
									CHANNELS 3 Xrotation Yrotation Zrotation
									JOINT LeftHand
									{
										OFFSET 29.527798 0.000000 0.000000
										CHANNELS 3 Xrotation Yrotation Zrotation
										JOINT LeftHandThumb1
										{
											OFFSET 10.739754 -2.369614 9.225399
											CHANNELS 3 Xrotation Yrotation Zrotation
											JOINT LeftHandThumb2
											{
												OFFSET 4.926170 -2.844131 2.844125
												CHANNELS 3 Xrotation Yrotation Zrotation
												JOINT LeftHandThumb3
												{
													OFFSET 4.614891 -2.664413 2.664409
													CHANNELS 3 Xrotation Yrotation Zrotation
													JOINT LeftHandThumb4
													{
														OFFSET 4.432465 -2.559082 2.559083
														CHANNELS 3 Xrotation Yrotation Zrotation
														End Site
														{
															OFFSET 0.000000 0.000000 0.000000
														}
													}
												}
											}
										}
										JOINT LeftHandIndex1
										{
											OFFSET 26.467674 0.187653 6.405298
											CHANNELS 3 Xrotation Yrotation Zrotation
											JOINT LeftHandIndex2
											{
												OFFSET 8.792900 0.000000 0.000000
												CHANNELS 3 Xrotation Yrotation Zrotation
												JOINT LeftHandIndex3
												{
													OFFSET 10.075203 0.000000 0.000000
													CHANNELS 3 Xrotation Yrotation Zrotation
													End Site
													{
														OFFSET 0.000000 0.000000 0.000000
													}
												}
											}
										}
										JOINT LeftHandMiddle1
										{
											OFFSET 25.764404 0.000000 0.000000
											CHANNELS 3 Xrotation Yrotation Zrotation
											JOINT LeftHandMiddle2
											{
												OFFSET 9.393974 0.000000 0.000000
												CHANNELS 3 Xrotation Yrotation Zrotation
												JOINT LeftHandMiddle3
												{
													OFFSET 10.771950 0.000000 0.000000
													CHANNELS 3 Xrotation Yrotation Zrotation
													End Site
													{
														OFFSET 0.000000 0.000000 0.000000
													}
												}
											}
										}
										JOINT LeftHandRing1
										{
											OFFSET 24.660927 0.144547 -6.225808
											CHANNELS 3 Xrotation Yrotation Zrotation
											JOINT LeftHandRing2
											{
												OFFSET 9.393799 0.000000 0.000000
												CHANNELS 3 Xrotation Yrotation Zrotation
												JOINT LeftHandRing3
												{
													OFFSET 9.928497 0.000000 0.000000
													CHANNELS 3 Xrotation Yrotation Zrotation
													End Site
													{
														OFFSET 0.000000 0.000000 0.000000
													}
												}
											}
										}
										JOINT LeftHandPinky1
										{
											OFFSET 23.655350 0.125290 -12.815412
											CHANNELS 3 Xrotation Yrotation Zrotation
											JOINT LeftHandPinky2
											{
												OFFSET 8.425102 0.000000 0.000000
												CHANNELS 3 Xrotation Yrotation Zrotation
												JOINT LeftHandPinky3
												{
													OFFSET 8.147003 0.000000 0.000000
													CHANNELS 3 Xrotation Yrotation Zrotation
													End Site
													{
														OFFSET 0.000000 0.000000 0.000000
													}
												}
											}
										}
									}
								}
							}
						}
					}
					JOINT RightShoulder
					{
						OFFSET -3.249400 8.794197 -1.372250
						CHANNELS 3 Xrotation Yrotation Zrotation
						JOINT RightShoulder_split
						{
							OFFSET -3.249400 8.794197 -1.372250
							CHANNELS 3 Xrotation Yrotation Zrotation
							JOINT RightArm
							{
								OFFSET -11.953299 -2.279007 -0.146200
								CHANNELS 3 Xrotation Yrotation Zrotation
								JOINT RightForeArm
								{
									OFFSET -18.448900 0.000000 0.000000
									CHANNELS 3 Xrotation Yrotation Zrotation
									JOINT RightHand
									{
										OFFSET -29.527802 0.000000 0.000000
										CHANNELS 3 Xrotation Yrotation Zrotation
										JOINT RightHandThumb1
										{
											OFFSET -10.739754 -2.369614 9.225399
											CHANNELS 3 Xrotation Yrotation Zrotation
											JOINT RightHandThumb2
											{
												OFFSET -4.926170 -2.844131 2.844125
												CHANNELS 3 Xrotation Yrotation Zrotation
												JOINT RightHandThumb3
												{
													OFFSET -4.614891 -2.664413 2.664409
													CHANNELS 3 Xrotation Yrotation Zrotation
													JOINT RightHandThumb4
													{
														OFFSET -4.432465 -2.559082 2.559083
														CHANNELS 3 Xrotation Yrotation Zrotation
														End Site
														{
															OFFSET 0.000000 0.000000 0.000000
														}
													}
												}
											}
										}
										JOINT RightHandIndex1
										{
											OFFSET -26.467674 0.187653 6.405298
											CHANNELS 3 Xrotation Yrotation Zrotation
											JOINT RightHandIndex2
											{
												OFFSET -8.792900 0.000000 0.000000
												CHANNELS 3 Xrotation Yrotation Zrotation
												JOINT RightHandIndex3
												{
													OFFSET -10.075203 0.000000 0.000000
													CHANNELS 3 Xrotation Yrotation Zrotation
													End Site
													{
														OFFSET 0.000000 0.000000 0.000000
													}
												}
											}
										}
										JOINT RightHandMiddle1
										{
											OFFSET -25.764404 0.000000 0.000000
											CHANNELS 3 Xrotation Yrotation Zrotation
											JOINT RightHandMiddle2
											{
												OFFSET -9.393974 0.000000 0.000000
												CHANNELS 3 Xrotation Yrotation Zrotation
												JOINT RightHandMiddle3
												{
													OFFSET -10.771950 0.000000 0.000000
													CHANNELS 3 Xrotation Yrotation Zrotation
													End Site
													{
														OFFSET 0.000000 0.000000 0.000000
													}
												}
											}
										}
										JOINT RightHandRing1
										{
											OFFSET -24.660927 0.144547 -6.225808
											CHANNELS 3 Xrotation Yrotation Zrotation
											JOINT RightHandRing2
											{
												OFFSET -9.393799 0.000000 0.000000
												CHANNELS 3 Xrotation Yrotation Zrotation
												JOINT RightHandRing3
												{
													OFFSET -9.928497 0.000000 0.000000
													CHANNELS 3 Xrotation Yrotation Zrotation
													End Site
													{
														OFFSET 0.000000 0.000000 0.000000
													}
												}
											}
										}
										JOINT RightHandPinky1
										{
											OFFSET -23.655350 0.125290 -12.815412
											CHANNELS 3 Xrotation Yrotation Zrotation
											JOINT RightHandPinky2
											{
												OFFSET -8.425102 0.000000 0.000000
												CHANNELS 3 Xrotation Yrotation Zrotation
												JOINT RightHandPinky3
												{
													OFFSET -8.147003 0.000000 0.000000
													CHANNELS 3 Xrotation Yrotation Zrotation
													End Site
													{
														OFFSET 0.000000 0.000000 0.000000
													}
												}
											}
										}
									}
								}
							}
						}
					}
				}
			}
		}
	}
	JOINT LeftUpLeg
	{
		OFFSET 11.394100 -6.187798 -0.413800
		CHANNELS 3 Xrotation Yrotation Zrotation
		JOINT LeftLeg
		{
			OFFSET 0.430247 -32.302673 3.732800
			CHANNELS 3 Xrotation Yrotation Zrotation
			JOINT LeftFoot
			{
				OFFSET -0.430247 -48.264931 -6.423300
				CHANNELS 3 Xrotation Yrotation Zrotation
				JOINT LeftToeBase
				{
					OFFSET 4.230900 -16.068199 23.438400
					CHANNELS 3 Xrotation Yrotation Zrotation
					JOINT LeftToe_End
					{
						OFFSET 4.510700 0.695400 19.974600
						CHANNELS 3 Xrotation Yrotation Zrotation
						End Site
						{
							OFFSET 0.000000 0.000000 0.000000
						}
					}
				}
			}
		}
	}
	JOINT RightUpLeg
	{
		OFFSET -11.333700 -6.187798 -0.413800
		CHANNELS 3 Xrotation Yrotation Zrotation
		JOINT RightLeg
		{
			OFFSET -0.430392 -32.302628 3.733000
			CHANNELS 3 Xrotation Yrotation Zrotation
			JOINT RightFoot
			{
				OFFSET 0.430392 -48.264973 -6.423500
				CHANNELS 3 Xrotation Yrotation Zrotation
				JOINT RightToeBase
				{
					OFFSET -4.230900 -16.068199 23.438400
					CHANNELS 3 Xrotation Yrotation Zrotation
					JOINT RightToe_End
					{
						OFFSET -4.510700 0.695400 19.974600
						CHANNELS 3 Xrotation Yrotation Zrotation
						End Site
						{
							OFFSET 0.000000 0.000000 0.000000
						}
					}
				}
			}
		}
	}
}
MOTION
Frames: 5
Frame Time: 0.016667
0.526781 110.360664 -4.212166 -92.610480 1.441935 4.395954 4.272184 -0.734166 0.343524 5.662830 -1.787561 -1.408119 0.000000 0.000000 0.000000 5.682645 -1.863436 -1.213450 -7.406077 -0.581398 1.811094 -13.802503 -2.716338 2.653907 -0.000000 -0.000000 0.000000 0.833464 0.643752 -7.065388 0.000000 0.000000 0.000000 35.730909 -29.399969 -39.106030 0.002515 -86.008734 0.002474 -14.794588 -4.980872 -2.151165 6.590534 -4.958662 16.122655 7.178847 21.567320 2.147310 -3.980810 36.507508 21.976006 -0.000001 -0.000002 -0.000000 0.659525 4.932353 -26.024465 0.169779 1.401620 -13.813545 0.000000 0.000000 -0.000000 1.376921 6.461959 -24.994184 0.169879 1.401960 -13.817118 0.000000 -0.000003 -0.000001 2.098721 8.644301 -21.209681 0.169787 1.401610 -13.813549 -0.000001 -0.000002 -0.000002 2.123421 10.735875 -14.817561 0.167501 1.392252 -13.719340 0.000001 0.000003 0.000001 1.050852 -2.047988 18.147307 0.000000 0.000000 0.000000 -39.666126 52.653355 55.025916 -0.000134 100.264807 0.000114 -34.129964 33.547365 -4.808407 24.570557 30.236701 15.138926 9.301603 -39.834029 -3.735095 -3.574086 -23.455015 -18.375777 0.000000 -0.000003 0.000001 -0.115169 -3.017709 29.162712 0.947786 -2.817930 37.173270 0.000001 -0.000000 -0.000001 -2.076532 -3.537406 58.007813 2.575725 -4.167070 63.427425 -0.000001 0.000001 -0.000001 0.679062 -5.779054 70.144608 3.287901 -4.451754 72.883945 -0.000001 -0.000001 -0.000000 3.720098 -6.826256 77.738379 3.738195 -4.565813 78.607145 -0.000001 0.000001 -0.000000 -0.239507 15.035833 12.367263 1.254021 7.568308 4.109427 37.048660 28.476100 -29.616404 -8.533132 0.000004 -0.000014 0.000001 -0.000003 0.000001 -3.857970 -18.823142 -16.653885 2.580594 -6.517498 -7.323753 35.920726 -29.981170 30.169362 -2.926738 0.000008 0.000005 0.000001 -0.000001 0.000000 
0.514004 110.356750 -4.333977 -92.823405 1.314329 4.380909 4.234249 -0.726131 0.303954 5.577424 -1.781749 -1.434906 0.000000 0.000000 0.000000 5.572902 -1.863084 -1.240883 -7.427417 -0.598162 1.870912 -14.412097 -2.797161 2.806449 -0.000001 -0.000000 0.000000 0.795799 0.368580 -6.754030 0.000000 0.000000 0.000000 35.724338 -29.362625 -39.579075 0.000110 -85.982287 0.000120 -14.760404 -4.934459 -2.109619 6.590535 -4.958663 16.122656 7.178854 21.567321 2.147310 -3.980811 36.507511 21.976002 -0.000000 -0.000001 -0.000002 0.659528 4.932346 -26.024469 0.169779 1.401623 -13.813543 -0.000000 -0.000001 -0.000001 1.376923 6.461957 -24.994179 0.169879 1.401960 -13.817119 -0.000001 0.000001 0.000001 2.098723 8.644297 -21.209674 0.169786 1.401614 -13.813551 0.000000 0.000002 -0.000000 2.123422 10.735871 -14.817566 0.167505 1.392249 -13.719343 0.000002 -0.000002 0.000001 1.046859 -1.901965 17.705032 0.000000 0.000000 0.000000 -41.695559 52.153224 56.287326 0.000478 98.952113 -0.000516 -34.567044 34.030123 -4.422384 24.570566 30.236691 15.138950 9.301590 -39.834039 -3.735108 -3.574078 -23.455006 -18.375782 -0.000000 -0.000001 0.000000 -0.115168 -3.017715 29.162715 0.947794 -2.817933 37.173274 -0.000001 -0.000002 0.000000 -2.076513 -3.537395 58.007834 2.575710 -4.167067 63.427425 0.000001 -0.000004 -0.000002 0.679066 -5.779065 70.144608 3.287920 -4.451754 72.883938 -0.000000 -0.000001 0.000000 3.720115 -6.826264 77.738379 3.738178 -4.565790 78.607165 -0.000001 -0.000001 -0.000000 0.202412 15.202186 12.368209 1.370689 7.560336 4.193236 37.059657 29.170478 -30.152645 -8.559216 0.000010 -0.000018 0.000000 -0.000001 -0.000000 -3.778503 -19.061868 -16.777255 2.614897 -6.382507 -7.220249 36.265026 -29.972366 30.157109 -3.139301 0.000012 -0.000009 0.000000 -0.000002 0.000001 
0.498568 110.348503 -4.398537 -92.969591 1.269152 4.361238 4.228286 -0.710351 0.274131 5.498820 -1.756072 -1.456301 0.000000 0.000000 0.000000 5.557742 -1.836371 -1.256271 -7.364451 -0.607704 1.904431 -14.429620 -2.818834 2.924230 0.000000 -0.000000 0.000000 0.752573 0.149307 -6.556119 0.000000 0.000000 0.000000 35.791667 -29.405597 -39.728465 0.001821 -85.965662 0.001867 -14.823942 -4.926970 -1.997095 6.590534 -4.958664 16.122655 7.178851 21.567320 2.147312 -3.980808 36.507505 21.976004 0.000002 -0.000000 -0.000002 0.659528 4.932348 -26.024465 0.169776 1.401622 -13.813542 0.000001 -0.000000 0.000001 1.376922 6.461963 -24.994176 0.169879 1.401968 -13.817117 -0.000001 0.000004 0.000003 2.098720 8.644299 -21.209675 0.169786 1.401610 -13.813553 -0.000004 0.000001 0.000001 2.123422 10.735871 -14.817566 0.167504 1.392251 -13.719341 -0.000000 -0.000001 -0.000000 1.031405 -1.759338 17.391864 0.000000 0.000000 0.000000 -42.645150 51.582074 56.777064 0.001140 97.838328 -0.001119 -34.847092 34.643744 -3.962458 24.570549 30.236694 15.138954 9.301609 -39.834039 -3.735100 -3.574101 -23.455011 -18.375784 -0.000001 -0.000001 0.000000 -0.115163 -3.017708 29.162715 0.947766 -2.817928 37.173277 -0.000000 0.000000 -0.000001 -2.076506 -3.537402 58.007820 2.575704 -4.167065 63.427432 -0.000000 0.000003 -0.000004 0.679062 -5.779058 70.144588 3.287912 -4.451761 72.883958 -0.000000 0.000000 -0.000002 3.720096 -6.826268 77.738379 3.738203 -4.565805 78.607172 0.000002 0.000001 0.000000 0.523786 15.258021 12.381927 1.512036 7.538598 4.277705 37.116409 29.535989 -30.443232 -8.606405 0.000032 -0.000003 -0.000001 0.000001 -0.000000 -3.693839 -19.240595 -16.900769 2.637666 -6.301988 -7.096626 36.622392 -29.963265 30.160879 -3.401732 0.000006 0.000005 -0.000001 -0.000000 0.000001 
0.481826 110.350426 -4.429443 -93.005170 1.200536 4.314868 4.239471 -0.692746 0.265981 5.508398 -1.714589 -1.460458 0.000000 0.000000 0.000000 5.567319 -1.797903 -1.270685 -7.160168 -0.610770 1.930709 -13.898868 -2.777516 3.041225 -0.000001 -0.000000 0.000000 0.749795 0.216471 -6.485457 0.000000 0.000000 0.000000 35.680375 -29.527437 -39.791763 -0.000095 -85.903467 -0.000070 -14.753355 -4.901675 -2.106203 6.590533 -4.958665 16.122656 7.178846 21.567321 2.147315 -3.980813 36.507508 21.976004 -0.000003 -0.000002 0.000001 0.659524 4.932350 -26.024464 0.169780 1.401621 -13.813543 0.000000 -0.000003 -0.000000 1.376920 6.461960 -24.994177 0.169878 1.401962 -13.817119 0.000002 0.000002 0.000000 2.098721 8.644300 -21.209681 0.169788 1.401610 -13.813550 0.000002 0.000002 -0.000000 2.123421 10.735872 -14.817564 0.167504 1.392255 -13.719337 0.000001 -0.000002 -0.000000 1.021776 -1.623931 17.128497 0.000000 0.000000 0.000000 -43.055382 51.175496 56.795297 -0.000392 96.870613 0.000357 -35.048016 35.074517 -3.705412 24.570549 30.236704 15.138928 9.301582 -39.834018 -3.735118 -3.574072 -23.455008 -18.375763 0.000001 -0.000004 0.000001 -0.115177 -3.017707 29.162726 0.947785 -2.817940 37.173270 -0.000001 0.000000 -0.000000 -2.076510 -3.537391 58.007834 2.575707 -4.167054 63.427432 0.000000 -0.000002 0.000001 0.679051 -5.779050 70.144615 3.287912 -4.451761 72.883958 -0.000001 0.000002 -0.000000 3.720090 -6.826253 77.738365 3.738192 -4.565809 78.607165 -0.000000 -0.000000 0.000000 0.671110 15.246369 12.417437 1.677072 7.511214 4.366002 37.220641 29.531194 -30.414013 -8.547960 -0.000017 -0.000016 0.000001 -0.000002 0.000001 -3.671941 -19.319791 -16.906284 2.657719 -6.178011 -7.076385 36.980693 -29.962886 30.154384 -3.729886 -0.000010 0.000001 -0.000000 0.000001 -0.000001 
0.463414 110.358536 -4.421631 -92.929491 1.129788 4.250123 4.265608 -0.674165 0.275009 5.555456 -1.676086 -1.446812 0.000000 0.000000 0.000000 5.614038 -1.763748 -1.275982 -6.848941 -0.568000 1.851871 -12.821038 -2.678193 3.067694 -0.000000 -0.000001 0.000000 0.758816 0.358508 -6.445955 0.000000 0.000000 0.000000 35.602040 -29.770640 -39.668707 -0.000864 -85.806492 -0.000788 -14.766765 -4.951833 -2.141299 6.590533 -4.958667 16.122656 7.178852 21.567325 2.147310 -3.980812 36.507505 21.975997 0.000002 0.000002 0.000002 0.659525 4.932346 -26.024462 0.169778 1.401621 -13.813544 0.000002 0.000000 -0.000001 1.376920 6.461957 -24.994179 0.169876 1.401964 -13.817118 -0.000001 0.000001 0.000001 2.098718 8.644297 -21.209674 0.169787 1.401611 -13.813550 0.000003 -0.000003 -0.000001 2.123419 10.735871 -14.817566 0.167504 1.392251 -13.719341 0.000002 0.000004 0.000002 1.056723 -1.497106 16.955116 0.000000 0.000000 0.000000 -42.526277 51.008686 56.077093 0.000281 96.300169 -0.000286 -35.264799 35.244387 -3.939587 24.570537 30.236711 15.138932 9.301606 -39.834032 -3.735092 -3.574088 -23.455011 -18.375780 -0.000001 -0.000001 0.000000 -0.115189 -3.017697 29.162708 0.947758 -2.817932 37.173270 -0.000001 -0.000000 -0.000001 -2.076534 -3.537404 58.007820 2.575714 -4.167070 63.427425 0.000001 -0.000001 -0.000000 0.679051 -5.779040 70.144622 3.287887 -4.451755 72.883938 0.000000 0.000001 -0.000001 3.720086 -6.826248 77.738365 3.738163 -4.565826 78.607172 -0.000002 0.000001 0.000001 0.630580 15.194239 12.460779 1.835682 7.480536 4.451894 37.344770 29.523271 -30.375777 -8.483582 0.000014 -0.000007 0.000000 0.000001 0.000000 -3.713962 -19.321465 -16.851053 2.622175 -6.135228 -7.087049 37.404076 -29.966280 30.159127 -4.074172 -0.000017 -0.000014 0.000001 0.000001 -0.000001 
